<mxfile host="app.diagrams.net" agent="Mozilla/5.0 (Windows NT 10.0; Win64; x64) AppleWebKit/537.36 (KHTML, like Gecko) Chrome/137.0.0.0 Safari/537.36" version="27.1.4">
  <diagram name="Page-1" id="zP2NaF32iONbAKyUyYAg">
    <mxGraphModel dx="2066" dy="1145" grid="1" gridSize="10" guides="1" tooltips="1" connect="1" arrows="1" fold="1" page="1" pageScale="1" pageWidth="850" pageHeight="1100" math="0" shadow="0">
      <root>
        <mxCell id="0" />
        <mxCell id="1" parent="0" />
        <mxCell id="fsYfRgU25NYUROSfOwJK-12" style="edgeStyle=orthogonalEdgeStyle;rounded=0;orthogonalLoop=1;jettySize=auto;html=1;entryX=0;entryY=0.5;entryDx=0;entryDy=0;" edge="1" parent="1" source="fsYfRgU25NYUROSfOwJK-1" target="fsYfRgU25NYUROSfOwJK-5">
          <mxGeometry relative="1" as="geometry" />
        </mxCell>
        <mxCell id="fsYfRgU25NYUROSfOwJK-13" style="edgeStyle=orthogonalEdgeStyle;rounded=0;orthogonalLoop=1;jettySize=auto;html=1;entryX=0;entryY=0.5;entryDx=0;entryDy=0;" edge="1" parent="1" source="fsYfRgU25NYUROSfOwJK-1" target="fsYfRgU25NYUROSfOwJK-6">
          <mxGeometry relative="1" as="geometry" />
        </mxCell>
        <mxCell id="fsYfRgU25NYUROSfOwJK-14" style="edgeStyle=orthogonalEdgeStyle;rounded=0;orthogonalLoop=1;jettySize=auto;html=1;entryX=0;entryY=0.5;entryDx=0;entryDy=0;" edge="1" parent="1" source="fsYfRgU25NYUROSfOwJK-1" target="fsYfRgU25NYUROSfOwJK-7">
          <mxGeometry relative="1" as="geometry" />
        </mxCell>
        <mxCell id="fsYfRgU25NYUROSfOwJK-15" style="edgeStyle=orthogonalEdgeStyle;rounded=0;orthogonalLoop=1;jettySize=auto;html=1;entryX=0;entryY=0.5;entryDx=0;entryDy=0;" edge="1" parent="1" source="fsYfRgU25NYUROSfOwJK-1" target="fsYfRgU25NYUROSfOwJK-4">
          <mxGeometry relative="1" as="geometry" />
        </mxCell>
        <mxCell id="fsYfRgU25NYUROSfOwJK-16" style="edgeStyle=orthogonalEdgeStyle;rounded=0;orthogonalLoop=1;jettySize=auto;html=1;entryX=0;entryY=0.5;entryDx=0;entryDy=0;" edge="1" parent="1" source="fsYfRgU25NYUROSfOwJK-1" target="fsYfRgU25NYUROSfOwJK-3">
          <mxGeometry relative="1" as="geometry" />
        </mxCell>
        <mxCell id="fsYfRgU25NYUROSfOwJK-21" style="edgeStyle=orthogonalEdgeStyle;rounded=0;orthogonalLoop=1;jettySize=auto;html=1;entryX=0;entryY=0.5;entryDx=0;entryDy=0;" edge="1" parent="1" source="fsYfRgU25NYUROSfOwJK-1" target="fsYfRgU25NYUROSfOwJK-10">
          <mxGeometry relative="1" as="geometry" />
        </mxCell>
        <mxCell id="fsYfRgU25NYUROSfOwJK-24" style="edgeStyle=orthogonalEdgeStyle;rounded=0;orthogonalLoop=1;jettySize=auto;html=1;entryX=0;entryY=0.5;entryDx=0;entryDy=0;" edge="1" parent="1" source="fsYfRgU25NYUROSfOwJK-1" target="fsYfRgU25NYUROSfOwJK-9">
          <mxGeometry relative="1" as="geometry" />
        </mxCell>
        <mxCell id="fsYfRgU25NYUROSfOwJK-1" value="Customer" style="shape=umlActor;verticalLabelPosition=bottom;verticalAlign=top;html=1;outlineConnect=0;" vertex="1" parent="1">
          <mxGeometry x="90" y="400" width="30" height="60" as="geometry" />
        </mxCell>
        <mxCell id="fsYfRgU25NYUROSfOwJK-3" value="Access Website" style="ellipse;whiteSpace=wrap;html=1;" vertex="1" parent="1">
          <mxGeometry x="370" y="150" width="120" height="80" as="geometry" />
        </mxCell>
        <mxCell id="fsYfRgU25NYUROSfOwJK-4" value="Login/Register" style="ellipse;whiteSpace=wrap;html=1;" vertex="1" parent="1">
          <mxGeometry x="370" y="230" width="120" height="80" as="geometry" />
        </mxCell>
        <mxCell id="fsYfRgU25NYUROSfOwJK-5" value="View Items" style="ellipse;whiteSpace=wrap;html=1;" vertex="1" parent="1">
          <mxGeometry x="370" y="390" width="120" height="80" as="geometry" />
        </mxCell>
        <mxCell id="fsYfRgU25NYUROSfOwJK-6" value="Buy Items" style="ellipse;whiteSpace=wrap;html=1;" vertex="1" parent="1">
          <mxGeometry x="370" y="550" width="120" height="80" as="geometry" />
        </mxCell>
        <mxCell id="fsYfRgU25NYUROSfOwJK-7" value="Sell Items" style="ellipse;whiteSpace=wrap;html=1;" vertex="1" parent="1">
          <mxGeometry x="370" y="630" width="120" height="80" as="geometry" />
        </mxCell>
        <mxCell id="fsYfRgU25NYUROSfOwJK-8" value="Maintenance" style="ellipse;whiteSpace=wrap;html=1;" vertex="1" parent="1">
          <mxGeometry x="370" y="310" width="120" height="80" as="geometry" />
        </mxCell>
        <mxCell id="fsYfRgU25NYUROSfOwJK-9" value="View/Send Messages" style="ellipse;whiteSpace=wrap;html=1;" vertex="1" parent="1">
          <mxGeometry x="370" y="710" width="120" height="80" as="geometry" />
        </mxCell>
        <mxCell id="fsYfRgU25NYUROSfOwJK-10" value="Logout" style="ellipse;whiteSpace=wrap;html=1;" vertex="1" parent="1">
          <mxGeometry x="370" y="790" width="120" height="80" as="geometry" />
        </mxCell>
        <mxCell id="fsYfRgU25NYUROSfOwJK-17" style="edgeStyle=orthogonalEdgeStyle;rounded=0;orthogonalLoop=1;jettySize=auto;html=1;entryX=1;entryY=0.5;entryDx=0;entryDy=0;" edge="1" parent="1" source="fsYfRgU25NYUROSfOwJK-11" target="fsYfRgU25NYUROSfOwJK-3">
          <mxGeometry relative="1" as="geometry" />
        </mxCell>
        <mxCell id="fsYfRgU25NYUROSfOwJK-18" style="edgeStyle=orthogonalEdgeStyle;rounded=0;orthogonalLoop=1;jettySize=auto;html=1;entryX=1;entryY=0.5;entryDx=0;entryDy=0;" edge="1" parent="1" source="fsYfRgU25NYUROSfOwJK-11" target="fsYfRgU25NYUROSfOwJK-4">
          <mxGeometry relative="1" as="geometry" />
        </mxCell>
        <mxCell id="fsYfRgU25NYUROSfOwJK-19" style="edgeStyle=orthogonalEdgeStyle;rounded=0;orthogonalLoop=1;jettySize=auto;html=1;entryX=1;entryY=0.5;entryDx=0;entryDy=0;" edge="1" parent="1" source="fsYfRgU25NYUROSfOwJK-11" target="fsYfRgU25NYUROSfOwJK-8">
          <mxGeometry relative="1" as="geometry" />
        </mxCell>
        <mxCell id="fsYfRgU25NYUROSfOwJK-20" style="edgeStyle=orthogonalEdgeStyle;rounded=0;orthogonalLoop=1;jettySize=auto;html=1;entryX=1;entryY=0.5;entryDx=0;entryDy=0;" edge="1" parent="1" source="fsYfRgU25NYUROSfOwJK-11" target="fsYfRgU25NYUROSfOwJK-10">
          <mxGeometry relative="1" as="geometry" />
        </mxCell>
        <mxCell id="fsYfRgU25NYUROSfOwJK-23" style="edgeStyle=orthogonalEdgeStyle;rounded=0;orthogonalLoop=1;jettySize=auto;html=1;entryX=1;entryY=0.5;entryDx=0;entryDy=0;" edge="1" parent="1" source="fsYfRgU25NYUROSfOwJK-11" target="fsYfRgU25NYUROSfOwJK-5">
          <mxGeometry relative="1" as="geometry" />
        </mxCell>
        <mxCell id="fsYfRgU25NYUROSfOwJK-26" style="edgeStyle=orthogonalEdgeStyle;rounded=0;orthogonalLoop=1;jettySize=auto;html=1;entryX=1;entryY=0.5;entryDx=0;entryDy=0;" edge="1" parent="1" source="fsYfRgU25NYUROSfOwJK-11" target="fsYfRgU25NYUROSfOwJK-25">
          <mxGeometry relative="1" as="geometry" />
        </mxCell>
        <mxCell id="fsYfRgU25NYUROSfOwJK-11" value="Admin" style="shape=umlActor;verticalLabelPosition=bottom;verticalAlign=top;html=1;outlineConnect=0;" vertex="1" parent="1">
          <mxGeometry x="700" y="400" width="30" height="60" as="geometry" />
        </mxCell>
        <mxCell id="fsYfRgU25NYUROSfOwJK-22" value="C2C" style="shape=umlFrame;whiteSpace=wrap;html=1;pointerEvents=0;" vertex="1" parent="1">
          <mxGeometry x="210" y="110" width="450" height="780" as="geometry" />
        </mxCell>
        <mxCell id="fsYfRgU25NYUROSfOwJK-25" value="Remove Items" style="ellipse;whiteSpace=wrap;html=1;" vertex="1" parent="1">
          <mxGeometry x="370" y="470" width="120" height="80" as="geometry" />
        </mxCell>
      </root>
    </mxGraphModel>
  </diagram>
</mxfile>
